<svg width="116" height="110" viewBox="0 0 116 110" fill="none" xmlns="http://www.w3.org/2000/svg">
<path d="M15.08 29.7002C14.4647 29.7002 13.8746 29.932 13.4395 30.3446C13.0044 30.7571 12.76 31.3167 12.76 31.9002C12.76 32.4837 13.0044 33.0432 13.4395 33.4558C13.8746 33.8684 14.4647 34.1002 15.08 34.1002C15.6953 34.1002 16.2854 33.8684 16.7205 33.4558C17.1556 33.0432 17.4 32.4837 17.4 31.9002C17.4 31.3167 17.1556 30.7571 16.7205 30.3446C16.2854 29.932 15.6953 29.7002 15.08 29.7002Z" fill="#EE3E54"/>
<path d="M89.32 13.2002C89.0124 13.2002 88.7173 13.3161 88.4998 13.5224C88.2822 13.7287 88.16 14.0085 88.16 14.3002C88.16 14.5919 88.2822 14.8717 88.4998 15.078C88.7173 15.2843 89.0124 15.4002 89.32 15.4002C89.6277 15.4002 89.9227 15.2843 90.1402 15.078C90.3578 14.8717 90.48 14.5919 90.48 14.3002C90.48 14.0085 90.3578 13.7287 90.1402 13.5224C89.9227 13.3161 89.6277 13.2002 89.32 13.2002Z" fill="#F1BC19"/>
<path d="M58 14.2998C46.6169 14.2998 35.7 18.5878 27.651 26.2206C19.6019 33.8533 15.08 44.2055 15.08 54.9998C15.08 65.7941 19.6019 76.1463 27.651 83.7791C35.7 91.4118 46.6169 95.6998 58 95.6998C69.3831 95.6998 80.2999 91.4118 88.349 83.7791C96.3981 76.1463 100.92 65.7941 100.92 54.9998C100.92 44.2055 96.3981 33.8533 88.349 26.2206C80.2999 18.5878 69.3831 14.2998 58 14.2998Z" fill="#FCE0A2"/>
<path d="M96.28 12.0996C95.0494 12.0996 93.8692 12.5632 92.999 13.3883C92.1288 14.2135 91.64 15.3327 91.64 16.4996C91.64 17.6666 92.1288 18.7857 92.999 19.6109C93.8692 20.436 95.0494 20.8996 96.28 20.8996C97.5106 20.8996 98.6908 20.436 99.561 19.6109C100.431 18.7857 100.92 17.6666 100.92 16.4996C100.92 15.3327 100.431 14.2135 99.561 13.3883C98.6908 12.5632 97.5106 12.0996 96.28 12.0996Z" fill="#F1BC19"/>
<path d="M100.92 24.2002C100.305 24.2002 99.7146 24.432 99.2795 24.8446C98.8444 25.2571 98.6 25.8167 98.6 26.4002C98.6 26.9837 98.8444 27.5432 99.2795 27.9558C99.7146 28.3684 100.305 28.6002 100.92 28.6002C101.535 28.6002 102.125 28.3684 102.56 27.9558C102.996 27.5432 103.24 26.9837 103.24 26.4002C103.24 25.8167 102.996 25.2571 102.56 24.8446C102.125 24.432 101.535 24.2002 100.92 24.2002Z" fill="#EE3E54"/>
<path d="M93.96 81.4004C93.3447 81.4004 92.7546 81.6322 92.3195 82.0448C91.8844 82.4573 91.64 83.0169 91.64 83.6004C91.64 84.1839 91.8844 84.7434 92.3195 85.156C92.7546 85.5686 93.3447 85.8004 93.96 85.8004C94.5753 85.8004 95.1654 85.5686 95.6005 85.156C96.0356 84.7434 96.28 84.1839 96.28 83.6004C96.28 83.0169 96.0356 82.4573 95.6005 82.0448C95.1654 81.6322 94.5753 81.4004 93.96 81.4004ZM17.4 64.9004C16.1694 64.9004 14.9892 65.364 14.119 66.1891C13.2489 67.0143 12.76 68.1334 12.76 69.3004C12.76 70.4673 13.2489 71.5865 14.119 72.4117C14.9892 73.2368 16.1694 73.7004 17.4 73.7004C18.6306 73.7004 19.8108 73.2368 20.681 72.4117C21.5512 71.5865 22.04 70.4673 22.04 69.3004C22.04 68.1334 21.5512 67.0143 20.681 66.1891C19.8108 65.364 18.6306 64.9004 17.4 64.9004Z" fill="#FBCD59"/>
<path d="M29 93.5C28.3847 93.5 27.7946 93.7318 27.3595 94.1444C26.9244 94.5569 26.68 95.1165 26.68 95.7C26.68 96.2835 26.9244 96.8431 27.3595 97.2556C27.7946 97.6682 28.3847 97.9 29 97.9C29.6153 97.9 30.2054 97.6682 30.6405 97.2556C31.0756 96.8431 31.32 96.2835 31.32 95.7C31.32 95.1165 31.0756 94.5569 30.6405 94.1444C30.2054 93.7318 29.6153 93.5 29 93.5Z" fill="#EE3E54"/>
<path d="M21.46 56.0996C20.6909 56.0996 19.9532 56.3893 19.4094 56.9051C18.8655 57.4208 18.56 58.1203 18.56 58.8496C18.56 59.579 18.8655 60.2784 19.4094 60.7942C19.9532 61.3099 20.6909 61.5996 21.46 61.5996C22.2291 61.5996 22.9668 61.3099 23.5106 60.7942C24.0545 60.2784 24.36 59.579 24.36 58.8496C24.36 58.1203 24.0545 57.4208 23.5106 56.9051C22.9668 56.3893 22.2291 56.0996 21.46 56.0996Z" fill="white"/>
<path d="M24.36 72.5996C24.0524 72.5996 23.7573 72.7155 23.5398 72.9218C23.3222 73.1281 23.2 73.4079 23.2 73.6996C23.2 73.9913 23.3222 74.2711 23.5398 74.4774C23.7573 74.6837 24.0524 74.7996 24.36 74.7996C24.6677 74.7996 24.9627 74.6837 25.1803 74.4774C25.3978 74.2711 25.52 73.9913 25.52 73.6996C25.52 73.4079 25.3978 73.1281 25.1803 72.9218C24.9627 72.7155 24.6677 72.5996 24.36 72.5996Z" fill="#F1BC19"/>
<path d="M92.8 36.2998C92.4923 36.2998 92.1973 36.4157 91.9797 36.622C91.7622 36.8283 91.64 37.1081 91.64 37.3998C91.64 37.6915 91.7622 37.9713 91.9797 38.1776C92.1973 38.3839 92.4923 38.4998 92.8 38.4998C93.1076 38.4998 93.4027 38.3839 93.6202 38.1776C93.8378 37.9713 93.96 37.6915 93.96 37.3998C93.96 37.1081 93.8378 36.8283 93.6202 36.622C93.4027 36.4157 93.1076 36.2998 92.8 36.2998Z" fill="white"/>
<path d="M58 28.1875C54.3059 28.1875 50.648 28.8775 47.2351 30.218C43.8222 31.5586 40.7212 33.5234 38.1091 36.0004C35.497 38.4774 33.4249 41.4181 32.0113 44.6544C30.5976 47.8908 29.87 51.3595 29.87 54.8625C29.87 58.3655 30.5976 61.8342 32.0113 65.0706C33.4249 68.3069 35.497 71.2476 38.1091 73.7246C40.7212 76.2016 43.8222 78.1664 47.2351 79.507C50.648 80.8475 54.3059 81.5375 58 81.5375C61.6941 81.5375 65.352 80.8475 68.7649 79.507C72.1778 78.1664 75.2788 76.2016 77.8909 73.7246C80.503 71.2476 82.5751 68.3069 83.9887 65.0706C85.4024 61.8342 86.13 58.3655 86.13 54.8625C86.13 51.3595 85.4024 47.8908 83.9887 44.6544C82.5751 41.4181 80.503 38.4774 77.8909 36.0004C75.2788 33.5234 72.1778 31.5586 68.7649 30.218C65.352 28.8775 61.6941 28.1875 58 28.1875Z" fill="#78A2D2"/>
<path d="M79.0703 65.3893C78.9856 65.3893 78.8986 65.3706 78.8162 65.3332C78.5285 65.2001 78.4091 64.8712 78.5494 64.5984C78.7025 64.3003 78.8464 64.0011 78.9844 63.6986C79.518 62.5238 79.9426 61.294 80.2453 60.0488C80.3173 59.7518 80.6316 59.5681 80.9413 59.6363C81.2534 59.7056 81.4483 60.0004 81.3763 60.2963C81.0573 61.6064 80.6107 62.8989 80.0493 64.1353C79.9043 64.4532 79.7523 64.7678 79.5911 65.0802C79.4913 65.276 79.2849 65.3893 79.0703 65.3893Z" fill="#472B29"/>
<path d="M81.5062 57.57C81.4888 57.57 81.4714 57.5689 81.454 57.5678C81.135 57.5414 80.8996 57.273 80.9286 56.9705C80.9738 56.4986 81.0016 56.0278 81.0144 55.5559C81.0921 52.6233 80.562 49.7556 79.4391 47.0287C79.322 46.746 79.4704 46.427 79.7686 46.317C80.069 46.2026 80.4031 46.3445 80.5202 46.6294C81.7 49.4916 82.2567 52.5045 82.1744 55.5834C82.1616 56.0795 82.1315 56.5745 82.0839 57.0706C82.0561 57.3555 81.8032 57.57 81.5062 57.57Z" fill="#472B29"/>
<path d="M40.7241 40.1854C40.5814 40.1854 40.4399 40.1359 40.3285 40.0369C40.0942 39.8301 40.0826 39.4814 40.3007 39.2603C44.2435 35.2541 49.5795 32.7263 55.3227 32.1378C55.644 32.1125 55.9271 32.3248 55.9619 32.6251C55.9967 32.9265 55.7658 33.1982 55.448 33.2312C49.9809 33.7911 44.9024 36.1979 41.1487 40.0094C41.035 40.1271 40.8795 40.1854 40.7241 40.1854Z" fill="#472B29"/>
<path d="M41.9201 71.8129C41.7774 71.8129 41.6359 71.7634 41.5245 71.6644C33.2839 64.3692 31.4082 52.8126 36.9611 43.5616C37.12 43.2954 37.4738 43.2041 37.7522 43.3548C38.0306 43.5055 38.128 43.841 37.9691 44.105C32.683 52.9116 34.4706 63.9138 42.3168 70.8603C42.5511 71.0671 42.5627 71.4158 42.3446 71.6369C42.2298 71.7535 42.0744 71.8129 41.9201 71.8129Z" fill="#472B29"/>
<path d="M68.3112 75.646C68.0955 75.646 67.8878 75.5316 67.7881 75.3347C67.6489 75.0619 67.7695 74.733 68.0584 74.601C70.6127 73.4328 72.8979 71.8345 74.8513 69.8534C75.639 69.0515 76.3674 68.1913 77.0159 67.2959C77.1968 67.0462 77.5599 66.9824 77.8221 67.154C78.0866 67.3256 78.1538 67.6677 77.9717 67.9185C77.2908 68.859 76.5264 69.7632 75.6993 70.6025C73.6472 72.6859 71.2472 74.3645 68.563 75.591C68.4818 75.6284 68.3959 75.646 68.3112 75.646Z" fill="#472B29"/>
<path d="M58 82.308C42.0419 82.308 29.058 69.9968 29.058 54.863C29.058 39.7292 42.0419 27.418 58 27.418C73.9581 27.418 86.942 39.7292 86.942 54.863C86.942 69.9968 73.9581 82.308 58 82.308ZM58 28.958C42.9374 28.958 30.682 40.5784 30.682 54.863C30.682 69.1476 42.9374 80.768 58 80.768C73.0626 80.768 85.318 69.1476 85.318 54.863C85.318 40.5784 73.0626 28.958 58 28.958Z" fill="#472B29"/>
<path d="M53.9643 76.723V58.023H46.98V51.4472H53.9643V44.6096C53.8054 38.4749 58.7888 32.5074 70.325 35.8162L70.3006 41.6143L66.2313 41.5901C63.1005 41.5901 62.0229 42.5394 62.0229 44.6096V51.4472H70.325L68.8657 58.023H62.0229V76.723" fill="white"/>
<path d="M62.6029 76.7231H61.4429V57.4731H68.3948L69.6104 51.9973H61.4429V44.6097C61.4429 42.1413 62.9196 41.0402 66.2314 41.0402L69.723 41.0611L69.7438 36.2277C64.786 34.8857 60.7202 35.2234 57.9652 37.2133C55.7125 38.8402 54.4643 41.5319 54.5444 44.5965V51.9984H47.56V57.4731H54.5444V76.7231H53.3844V58.5731H46.4V50.8973H53.3844V44.6097C53.2962 41.2008 54.7091 38.1802 57.2622 36.3366C59.4523 34.7548 63.5239 33.2918 70.4932 35.2894L70.9073 35.4071L70.8795 42.1666L66.229 42.1402C63.1968 42.1402 62.604 43.0455 62.604 44.6097V50.8973H71.0407L69.3367 58.5731H62.6029V76.7231Z" fill="#472B29"/>
</svg>
